<?xml version="1.0" standalone="no"?>
<!DOCTYPE svg PUBLIC "-//W3C//DTD SVG 20010904//EN"
 "http://www.w3.org/TR/2001/REC-SVG-20010904/DTD/svg10.dtd">
<svg version="1.0" xmlns="http://www.w3.org/2000/svg"
 width="700.000000pt" height="700.000000pt" viewBox="0 0 700.000000 700.000000"
 preserveAspectRatio="xMidYMid meet">
<metadata>
Created by potrace 1.14, written by Peter Selinger 2001-2017
</metadata>
<g transform="translate(0.000000,700.000000) scale(0.100000,-0.100000)"
fill="#000000" stroke="none">
<path d="M0 3500 l0 -3500 3500 0 3500 0 0 3500 0 3500 -3500 0 -3500 0 0
-3500z m4706 2768 c70 -37 86 -72 82 -178 -7 -140 -47 -195 -168 -226 -78 -20
-179 -15 -233 11 -21 10 -50 34 -65 53 -24 31 -27 44 -27 111 0 65 5 85 30
136 17 32 42 68 57 78 71 52 239 60 324 15z m-2248 -182 c17 -23 40 -69 51
-103 20 -59 23 -71 36 -163 13 -90 16 -106 26 -143 6 -21 16 -40 24 -43 8 -4
43 4 77 16 54 19 69 21 104 11 61 -16 128 -81 166 -159 28 -56 33 -78 33 -138
0 -63 -3 -75 -29 -109 -48 -63 -44 -108 27 -252 134 -274 56 -484 -145 -389
-82 39 -153 102 -161 142 -5 30 17 57 70 86 46 24 67 61 59 104 -10 48 -38 74
-82 74 -32 0 -44 -8 -90 -57 -45 -48 -56 -56 -71 -47 -21 13 -29 43 -38 136
-14 172 -28 235 -59 283 -19 29 -51 33 -61 8 -4 -10 -9 -49 -12 -88 -9 -134
-33 -184 -77 -164 -12 6 -30 23 -39 38 -20 34 -11 74 28 132 33 51 32 73 -7
125 -56 73 -108 90 -124 41 -4 -12 -8 -62 -9 -112 0 -49 -7 -113 -14 -140 -13
-48 -12 -53 12 -105 15 -30 49 -84 77 -120 215 -275 240 -332 173 -392 -125
-113 -328 14 -349 219 -9 83 -34 118 -108 152 -35 16 -66 36 -69 45 -10 27 9
61 68 123 32 32 64 71 72 87 23 44 23 156 -1 311 -3 17 -8 53 -12 80 -3 28 -8
58 -10 68 -1 9 -2 17 -1 17 1 0 36 -9 77 -20 41 -11 91 -20 112 -20 47 0 55
21 57 160 4 175 15 234 57 307 18 30 34 45 57 51 43 12 69 -1 105 -52z m823
-1004 c113 -129 318 -216 377 -161 12 10 24 36 27 56 3 21 8 52 11 69 12 80
86 83 115 5 23 -64 63 -108 127 -140 49 -25 163 -102 199 -135 112 -105 161
-165 146 -180 -20 -19 -75 2 -197 78 -66 40 -65 39 -86 26 -12 -7 -12 -16 -1
-62 8 -29 17 -57 21 -63 15 -21 49 -212 42 -238 -1 -5 7 -26 19 -47 21 -37 74
-70 113 -70 7 0 20 -8 29 -18 15 -16 15 -21 2 -39 -29 -41 -112 -51 -172 -19
-51 26 -99 91 -118 159 -26 94 -64 169 -83 165 -28 -5 -25 -57 8 -153 36 -107
38 -140 10 -155 -24 -13 -120 -7 -240 14 -19 4 -51 9 -70 13 -57 9 -126 43
-140 67 -6 13 -10 34 -8 47 2 20 10 25 43 27 38 4 139 -10 214 -29 33 -8 33
-8 27 24 -3 18 -8 50 -12 72 -36 245 -82 362 -157 396 -23 10 -52 19 -65 19
-68 0 -226 133 -258 216 -15 41 -15 45 0 69 22 34 38 32 77 -13z m1971 -227
c32 -61 64 -165 67 -215 1 -25 6 -48 10 -53 4 -4 25 6 47 23 42 32 96 39 126
16 18 -14 41 -63 34 -75 -2 -3 -7 -25 -11 -48 -5 -37 -3 -44 17 -56 13 -8 46
-15 73 -16 57 -2 65 -3 121 -19 81 -23 123 -82 72 -101 -25 -9 -151 -5 -208 7
-73 16 -204 2 -259 -26 -44 -23 -77 -82 -62 -110 18 -34 72 -44 147 -27 12 3
41 23 65 45 62 56 101 55 132 -6 28 -54 8 -156 -39 -195 -27 -22 -164 -17
-254 10 -104 32 -234 94 -297 143 -55 42 -81 79 -89 127 -8 40 -30 70 -111
147 l-74 71 98 100 c98 100 146 129 165 101 5 -7 5 -29 1 -48 -5 -19 -8 -65
-8 -101 1 -76 34 -154 76 -178 23 -13 28 -12 58 10 18 13 39 36 47 51 18 35
18 120 -1 200 -8 35 -17 77 -20 95 -3 18 -10 44 -16 60 -18 48 -19 131 -2 149
14 14 19 12 45 -13 17 -15 39 -46 50 -68z m-3920 -260 c109 -82 170 -173 222
-332 49 -148 91 -184 141 -119 61 81 202 71 250 -17 18 -34 36 -46 73 -53 8
-1 46 4 84 12 111 23 157 8 137 -44 -18 -47 -69 -107 -252 -292 -100 -102
-200 -205 -222 -230 -156 -174 -389 -478 -488 -635 -223 -357 -247 -386 -288
-349 -96 85 -138 465 -67 596 13 22 28 50 35 61 15 26 5 45 -59 115 -27 31
-48 63 -48 76 0 14 23 46 63 85 68 69 97 108 97 131 0 8 -15 25 -34 37 -42 27
-122 146 -141 210 -50 165 29 265 182 231 32 -8 64 -13 71 -12 6 1 17 2 23 3
12 1 8 90 -9 211 -21 150 29 369 88 383 27 6 72 -15 142 -68z m2346 -769 c5
-58 -24 -174 -58 -234 -25 -42 -47 -63 -116 -108 -47 -30 -94 -70 -105 -87
-24 -39 -21 -80 16 -202 15 -47 28 -95 31 -107 30 -146 35 -207 20 -279 -10
-46 4 -52 76 -34 29 8 60 12 69 9 32 -9 38 -86 13 -140 -35 -74 -103 -115
-191 -115 -67 0 -104 17 -125 61 -17 34 -20 52 -33 205 -14 168 -28 235 -49
235 -14 0 -73 -67 -146 -165 -58 -79 -139 -155 -165 -155 -12 0 -29 -6 -40
-14 -16 -11 -17 -21 -11 -77 14 -122 12 -142 -17 -158 -30 -16 -79 3 -141 55
-73 61 -87 115 -62 233 21 95 37 111 116 111 28 0 66 6 85 14 81 34 165 163
182 281 7 47 9 233 2 239 -6 6 -189 -58 -244 -85 -23 -12 -58 -34 -76 -50 -43
-37 -73 -37 -110 0 -33 34 -39 79 -11 103 28 26 112 64 200 92 45 14 119 38
165 52 147 47 164 63 173 165 7 92 21 135 49 157 65 51 173 -54 163 -158 -5
-52 4 -70 35 -70 49 0 109 64 128 136 21 78 89 137 149 131 21 -2 25 -8 28
-41z m687 -651 c19 -18 55 -68 55 -76 0 -16 -91 24 -110 48 -23 29 -25 44 -8
61 11 11 22 6 63 -33z m-65 -145 c-1 -8 -162 -127 -210 -154 -49 -28 -89 -33
-108 -14 -7 7 -12 33 -12 59 0 36 5 52 26 72 24 24 43 30 134 39 44 5 170 3
170 -2z m-485 -1594 c71 -10 155 -50 155 -74 0 -35 -49 -46 -168 -37 -137 10
-342 11 -407 3 -63 -8 -145 -35 -165 -54 -11 -11 -12 -16 -2 -26 9 -9 41 -12
110 -9 163 6 295 6 344 -1 126 -18 273 -76 285 -113 7 -23 -16 -36 -68 -38
-73 -2 -120 7 -226 41 -102 33 -123 30 -102 -14 17 -35 104 -88 217 -134 143
-57 254 -142 224 -172 -8 -8 -46 -2 -139 20 -70 17 -158 35 -194 40 -106 13
-259 5 -346 -18 -167 -46 -245 -51 -251 -18 -7 39 71 82 242 133 103 31 144
62 126 95 -18 33 -57 43 -188 45 -98 1 -126 4 -139 17 -24 25 -29 110 -9 162
35 91 132 132 356 152 41 3 76 7 77 8 5 4 224 -2 268 -8z m1251 -10 c8 -14 18
-51 20 -83 7 -97 31 -133 85 -133 12 0 30 -7 40 -16 14 -13 16 -20 7 -40 -11
-23 -23 -29 -73 -36 -36 -5 -54 -63 -59 -189 -3 -63 -10 -127 -17 -142 -26
-58 -77 -22 -145 103 -73 134 -192 307 -257 371 -32 33 -63 60 -68 60 -5 1
-15 2 -21 3 -38 5 -94 -62 -208 -252 -95 -156 -147 -212 -180 -192 -8 5 -14
25 -14 48 1 77 147 324 260 439 65 66 102 81 169 69 35 -7 111 -61 166 -119
67 -70 185 -201 192 -213 4 -8 13 -14 20 -14 9 0 12 37 13 133 0 129 13 203
38 219 15 10 14 11 32 -16z m-2161 -60 c9 -64 10 -205 1 -391 -14 -308 -15
-318 -54 -313 -22 2 -33 15 -57 65 -53 110 -114 154 -249 182 -120 24 -233 19
-296 -14 -30 -16 -35 -26 -44 -90 -12 -84 -17 -95 -43 -102 -31 -7 -63 25 -63
64 0 13 -5 33 -10 44 -10 17 -18 19 -74 13 -59 -6 -65 -5 -76 15 -19 37 18 83
97 118 132 59 248 87 358 87 95 0 108 -3 249 -52 82 -29 150 -51 152 -49 1 1
4 92 7 202 6 228 9 253 39 278 19 16 22 16 39 1 10 -9 21 -35 24 -58z m-425
51 c112 -22 193 -79 176 -123 -5 -14 -15 -16 -64 -11 -32 4 -74 13 -95 22
-150 63 -425 22 -456 -67 -16 -46 1 -48 119 -13 73 21 224 26 305 9 85 -18
161 -57 178 -92 30 -57 9 -62 -134 -32 -73 15 -120 19 -209 16 -131 -5 -167
-15 -229 -62 -50 -38 -98 -45 -124 -16 -37 42 -43 159 -11 228 34 71 135 127
264 147 57 9 220 5 280 -6z m1200 -602 c57 -11 152 -46 190 -68 46 -27 75 -61
105 -121 37 -74 34 -93 -17 -107 -68 -18 -97 -22 -263 -38 -75 -7 -407 -6
-450 2 -94 17 -118 41 -108 112 14 108 94 182 235 219 54 14 239 15 308 1z
m-1147 -63 c136 -67 320 -209 353 -274 18 -35 6 -58 -31 -58 -25 0 -115 56
-189 118 -67 56 -166 104 -225 110 -62 6 -152 -34 -256 -112 -102 -78 -146
-105 -182 -112 -29 -6 -33 -3 -39 20 -7 31 6 54 67 113 78 75 185 152 286 204
73 37 125 35 216 -9z m1834 22 c3 -9 6 -30 7 -47 1 -28 6 -33 41 -43 23 -7
118 -12 223 -13 100 -1 188 -4 195 -6 6 -2 31 -6 55 -9 24 -3 63 -14 88 -25
60 -27 168 -99 182 -122 10 -16 7 -19 -28 -29 -58 -16 -106 -5 -178 41 -135
85 -320 82 -570 -10 -46 -17 -90 -31 -97 -31 -26 0 -38 43 -37 137 0 99 6 128
30 156 20 22 80 23 89 1z"/>
<path d="M2627 5393 c-22 -25 -46 -98 -53 -164 -10 -88 19 -105 123 -72 127
40 131 137 9 231 -35 27 -58 28 -79 5z"/>
<path d="M1627 3944 c-62 -19 -90 -60 -84 -123 7 -60 34 -86 92 -85 94 3 199
106 181 177 -12 48 -92 61 -189 31z"/>
<path d="M1184 3866 c-104 -29 -129 -99 -66 -190 29 -42 92 -77 122 -69 28 7
50 47 61 111 20 113 -27 173 -117 148z"/>
<path d="M1463 3584 c-21 -9 -53 -71 -55 -106 -2 -65 42 -114 94 -104 59 12
89 87 61 155 -20 52 -58 72 -100 55z"/>
<path d="M3386 696 c-71 -27 -126 -80 -104 -102 7 -8 36 -18 63 -23 67 -13
410 -7 460 7 86 25 96 56 28 90 -60 30 -138 44 -268 47 -104 3 -128 0 -179
-19z"/>
</g>
</svg>
